<?xml version="1.0" encoding="UTF-8" standalone="no"?>
<!-- Created with Inkscape (http://www.inkscape.org/) -->

<svg
   xmlns:dc="http://purl.org/dc/elements/1.1/"
   xmlns:cc="http://creativecommons.org/ns#"
   xmlns:rdf="http://www.w3.org/1999/02/22-rdf-syntax-ns#"
   xmlns:svg="http://www.w3.org/2000/svg"
   xmlns="http://www.w3.org/2000/svg"
   xmlns:sodipodi="http://sodipodi.sourceforge.net/DTD/sodipodi-0.dtd"
   xmlns:inkscape="http://www.inkscape.org/namespaces/inkscape"
   width="26.93479mm"
   height="13.12112mm"
   viewBox="0 0 95.438231 46.492159"
   id="svg2"
   version="1.1"
   inkscape:version="0.91 r13725"
   sodipodi:docname="text.svg">
  <defs
     id="defs4" />
  <sodipodi:namedview
     id="base"
     pagecolor="#ffffff"
     bordercolor="#666666"
     borderopacity="1.0"
     inkscape:pageopacity="0.0"
     inkscape:pageshadow="2"
     inkscape:zoom="3.959798"
     inkscape:cx="55.644977"
     inkscape:cy="21.042547"
     inkscape:document-units="px"
     inkscape:current-layer="layer1"
     showgrid="false"
     inkscape:window-width="1680"
     inkscape:window-height="997"
     inkscape:window-x="-8"
     inkscape:window-y="-8"
     inkscape:window-maximized="1"
     fit-margin-top="0"
     fit-margin-left="0"
     fit-margin-right="0"
     fit-margin-bottom="0" />
  <metadata
     id="metadata7">
    <rdf:RDF>
      <cc:Work
         rdf:about="">
        <dc:format>image/svg+xml</dc:format>
        <dc:type
           rdf:resource="http://purl.org/dc/dcmitype/StillImage" />
        <dc:title></dc:title>
      </cc:Work>
    </rdf:RDF>
  </metadata>
  <g
     inkscape:label="Layer 1"
     inkscape:groupmode="layer"
     id="layer1"
     transform="translate(-261.23645,-393.1008)">
    <g
       style="font-style:normal;font-variant:normal;font-weight:normal;font-stretch:normal;font-size:17.5px;line-height:60.00000238%;font-family:Impact;-inkscape-font-specification:Impact;letter-spacing:0px;word-spacing:0px;fill:#000000;fill-opacity:1;stroke:none;stroke-width:1px;stroke-linecap:butt;stroke-linejoin:miter;stroke-opacity:1"
       id="text4136">
      <path
         d="m 309.39563,404.61081 0,-2.65747 q 1.23047,0.71777 2.06787,0.71777 0.48706,0 0.76904,-0.26489 0.28199,-0.27344 0.28199,-0.71778 0,-0.34179 -0.23072,-0.64086 -0.22216,-0.29908 -0.77758,-0.72632 -1.34156,-1.02539 -1.94825,-1.90552 -0.59814,-0.88867 -0.59814,-1.97388 0,-1.47827 0.9314,-2.40967 0.93139,-0.93139 2.40966,-0.93139 1.09375,0 2.17041,0.46997 l 0,2.55493 q -1.15356,-0.63232 -1.87133,-0.63232 -0.47852,0 -0.7605,0.23925 -0.27344,0.23072 -0.27344,0.64087 0,0.71778 1.29028,1.61499 0.76905,0.52979 1.55518,1.49536 0.79468,0.95704 0.79468,2.22168 0,1.47828 -1.03394,2.4524 -1.03393,0.96557 -2.62329,0.96557 -1.0852,0 -2.15332,-0.51269 z"
         style="font-style:normal;font-variant:normal;font-weight:normal;font-stretch:normal;line-height:60.00000238%;font-family:'Tw Cen MT Condensed Extra Bold';-inkscape-font-specification:'Tw Cen MT Condensed Extra Bold, ';text-align:end;text-anchor:end"
         id="path4147" />
      <path
         d="m 316.00085,393.41696 2.7002,0 1.40991,5.0415 q 0.40161,1.49537 0.54688,2.55494 l 0.0342,0 q 0.12817,-0.9314 0.28198,-1.52955 l 1.57226,-6.06689 2.76856,0 -3.42651,11.40747 -2.40113,0 -3.48633,-11.40747 z"
         style="font-style:normal;font-variant:normal;font-weight:normal;font-stretch:normal;line-height:60.00000238%;font-family:'Tw Cen MT Condensed Extra Bold';-inkscape-font-specification:'Tw Cen MT Condensed Extra Bold, ';text-align:end;text-anchor:end"
         id="path4149" />
      <path
         d="m 329.88635,404.82443 0,-1.03393 -0.0342,0 q -0.45288,0.6665 -0.88012,0.98266 -0.41871,0.31616 -0.99122,0.31616 -1.11938,0 -1.78588,-1.14502 -0.66651,-1.14502 -0.66651,-3.11035 0,-1.88843 0.67505,-3.00781 0.67505,-1.11938 1.77734,-1.11938 0.5896,0 0.99976,0.29907 0.41016,0.29052 0.85449,0.93994 l 0.0342,0 0,-0.98267 2.48657,0 0,7.86133 -2.46948,0 z m 0,-3.97339 q 0,-1.95678 -0.95703,-1.95678 -0.96557,0 -0.96557,1.95678 0,2.03369 0.99975,2.03369 0.92285,0 0.92285,-2.03369 z"
         style="font-style:normal;font-variant:normal;font-weight:normal;font-stretch:normal;line-height:60.00000238%;font-family:'Tw Cen MT Condensed Extra Bold';-inkscape-font-specification:'Tw Cen MT Condensed Extra Bold, ';text-align:end;text-anchor:end"
         id="path4151" />
      <path
         d="m 334.55188,394.8696 2.48657,0 0,2.0935 0.96558,0 0,2.06787 -0.98267,0 0,5.79346 -2.46948,0 0,-5.81055 -0.93994,0 0,-2.05078 0.93994,0 0,-2.0935 z"
         style="font-style:normal;font-variant:normal;font-weight:normal;font-stretch:normal;line-height:60.00000238%;font-family:'Tw Cen MT Condensed Extra Bold';-inkscape-font-specification:'Tw Cen MT Condensed Extra Bold, ';text-align:end;text-anchor:end"
         id="path4153" />
      <path
         d="m 347.38635,398.43283 0,1.91406 q 0,2.22168 -1.07666,3.49488 -1.06811,1.26464 -2.93091,1.26464 -2.08496,0 -3.22143,-1.56372 -1.13648,-1.57226 -1.13648,-4.47754 0,-2.9309 1.12793,-4.44336 1.13648,-1.52099 3.31543,-1.52099 2.44385,0 3.5376,2.6062 l -2.46948,1.01685 q -0.30762,-0.54688 -0.57251,-0.79468 -0.26489,-0.25635 -0.72632,-0.25635 -0.78613,0 -1.11938,0.82886 -0.32471,0.82031 -0.32471,2.66601 0,1.71753 0.36743,2.5293 0.37598,0.80322 1.18774,0.80322 1.29883,0 1.34156,-1.85425 l -1.20484,0 0,-2.21313 3.90503,0 z"
         style="font-style:normal;font-variant:normal;font-weight:normal;font-stretch:normal;line-height:60.00000238%;font-family:'Tw Cen MT Condensed Extra Bold';-inkscape-font-specification:'Tw Cen MT Condensed Extra Bold, ';text-align:end;text-anchor:end"
         id="path4155" />
      <path
         d="m 261.23645,403.94696 2.41821,0 q 2.51221,0 3.81958,1.43555 1.30738,1.427 1.30738,4.17846 0,2.08497 -0.64942,3.3667 -0.64087,1.28174 -1.80298,1.85425 -1.15356,0.57251 -2.55493,0.57251 l -2.53784,0 0,-11.40747 z m 2.58911,2.42676 0,6.54541 q 1.1792,-0.10254 1.66626,-0.82886 0.48706,-0.73486 0.48706,-2.40967 0,-0.99121 -0.1709,-1.6748 -0.1709,-0.69214 -0.51269,-1.05957 -0.33325,-0.37598 -0.65796,-0.46143 -0.31616,-0.0854 -0.81177,-0.11108 z"
         style="font-style:normal;font-variant:normal;font-weight:normal;font-stretch:normal;line-height:60.00000238%;font-family:'Tw Cen MT Condensed Extra Bold';-inkscape-font-specification:'Tw Cen MT Condensed Extra Bold, ';text-align:end;text-anchor:end"
         id="path4157" />
      <path
         d="m 273.95129,412.95331 2.09351,0 q -0.59814,2.64892 -2.99072,2.64892 -1.49536,0 -2.36695,-1.13647 -0.87158,-1.13647 -0.87158,-3.13599 0,-1.86279 0.87158,-2.98217 0.87159,-1.12793 2.31568,-1.12793 0.87158,0 1.6748,0.54687 0.80322,0.53833 1.17066,1.43555 0.36743,0.89721 0.41015,2.82837 l -4.14428,0 q 0.0513,1.75171 0.97412,1.75171 0.31616,0 0.56396,-0.23072 0.2478,-0.23071 0.29907,-0.59814 z m -1.80297,-2.27295 1.80297,0 q -0.0256,-0.82886 -0.23071,-1.22192 -0.20508,-0.40162 -0.64941,-0.40162 -0.49561,0 -0.70923,0.38453 -0.21362,0.38452 -0.21362,1.23901 z"
         style="font-style:normal;font-variant:normal;font-weight:normal;font-stretch:normal;line-height:60.00000238%;font-family:'Tw Cen MT Condensed Extra Bold';-inkscape-font-specification:'Tw Cen MT Condensed Extra Bold, ';text-align:end;text-anchor:end"
         id="path4159" />
      <path
         d="m 281.62463,415.35443 0,-1.03393 -0.0342,0 q -0.45288,0.6665 -0.88012,0.98266 -0.4187,0.31616 -0.99121,0.31616 -1.11939,0 -1.78589,-1.14502 -0.66651,-1.14501 -0.66651,-3.11035 0,-1.88842 0.67505,-3.00781 0.67505,-1.11938 1.77735,-1.11938 0.5896,0 0.99975,0.29907 0.41016,0.29053 0.85449,0.93994 l 0.0342,0 0,-0.98267 2.48658,0 0,7.86133 -2.46949,0 z m 0,-3.97339 q 0,-1.95678 -0.95703,-1.95678 -0.96557,0 -0.96557,1.95678 0,2.03369 0.99975,2.03369 0.92285,0 0.92285,-2.03369 z"
         style="font-style:normal;font-variant:normal;font-weight:normal;font-stretch:normal;line-height:60.00000238%;font-family:'Tw Cen MT Condensed Extra Bold';-inkscape-font-specification:'Tw Cen MT Condensed Extra Bold, ';text-align:end;text-anchor:end"
         id="path4161" />
      <path
         d="m 289.89612,403.31464 2.46948,0 0,12.03979 -2.48657,0 0,-1.03393 -0.0342,0 q -0.82886,1.29882 -1.87134,1.29882 -1.09375,0 -1.7688,-1.14502 -0.6665,-1.14501 -0.6665,-3.05908 0,-1.90551 0.68359,-3.04199 0.6836,-1.13647 1.80298,-1.13647 1.01685,0 1.87134,1.17065 l 0,-5.09277 z m 0,8.04931 q 0,-1.93969 -0.93994,-1.93969 -0.96558,0 -0.96558,2.05932 0,0.91431 0.25635,1.41846 0.26489,0.4956 0.72632,0.4956 0.42724,0 0.67505,-0.52978 0.2478,-0.52979 0.2478,-1.50391 z"
         style="font-style:normal;font-variant:normal;font-weight:normal;font-stretch:normal;line-height:60.00000238%;font-family:'Tw Cen MT Condensed Extra Bold';-inkscape-font-specification:'Tw Cen MT Condensed Extra Bold, ';text-align:end;text-anchor:end"
         id="path4163" />
      <path
         d="m 294.32239,403.31464 2.48657,0 0,12.03979 -2.48657,0 0,-12.03979 z"
         style="font-style:normal;font-variant:normal;font-weight:normal;font-stretch:normal;line-height:60.00000238%;font-family:'Tw Cen MT Condensed Extra Bold';-inkscape-font-specification:'Tw Cen MT Condensed Extra Bold, ';text-align:end;text-anchor:end"
         id="path4165" />
      <path
         d="m 298.76575,405.13471 q 0,-0.54688 0.38452,-0.9314 0.38452,-0.38452 0.92285,-0.38452 0.54688,0 0.9314,0.38452 0.38452,0.38452 0.38452,0.9314 0,0.53833 -0.38452,0.93139 -0.38452,0.38452 -0.9314,0.38452 -0.52979,0 -0.92285,-0.38452 -0.38452,-0.39306 -0.38452,-0.93139 z m 0.0684,2.35839 2.48657,0 0,7.86133 -2.48657,0 0,-7.86133 z"
         style="font-style:normal;font-variant:normal;font-weight:normal;font-stretch:normal;line-height:60.00000238%;font-family:'Tw Cen MT Condensed Extra Bold';-inkscape-font-specification:'Tw Cen MT Condensed Extra Bold, ';text-align:end;text-anchor:end"
         id="path4167" />
      <path
         d="m 305.75549,407.4931 0,1.06812 0.0427,0 q 0.87158,-1.32446 2.12768,-1.32446 0.82032,0 1.29883,0.54687 0.48706,0.54688 0.48706,1.47827 l 0,6.09253 -2.48657,0 0,-4.84497 q 0,-0.40161 -0.18799,-0.65796 -0.18799,-0.25635 -0.48706,-0.25635 -0.79468,0 -0.79468,0.99976 l 0,4.75952 -2.47802,0 0,-7.86133 2.47802,0 z"
         style="font-style:normal;font-variant:normal;font-weight:normal;font-stretch:normal;line-height:60.00000238%;font-family:'Tw Cen MT Condensed Extra Bold';-inkscape-font-specification:'Tw Cen MT Condensed Extra Bold, ';text-align:end;text-anchor:end"
         id="path4169" />
      <path
         d="m 315.24036,412.95331 2.0935,0 q -0.59814,2.64892 -2.99072,2.64892 -1.49536,0 -2.36694,-1.13647 -0.87159,-1.13647 -0.87159,-3.13599 0,-1.86279 0.87159,-2.98217 0.87158,-1.12793 2.31567,-1.12793 0.87158,0 1.6748,0.54687 0.80323,0.53833 1.17066,1.43555 0.36743,0.89721 0.41016,2.82837 l -4.14429,0 q 0.0513,1.75171 0.97412,1.75171 0.31616,0 0.56396,-0.23072 0.24781,-0.23071 0.29908,-0.59814 z m -1.80298,-2.27295 1.80298,0 q -0.0256,-0.82886 -0.23072,-1.22192 -0.20507,-0.40162 -0.64941,-0.40162 -0.49561,0 -0.70923,0.38453 -0.21362,0.38452 -0.21362,1.23901 z"
         style="font-style:normal;font-variant:normal;font-weight:normal;font-stretch:normal;line-height:60.00000238%;font-family:'Tw Cen MT Condensed Extra Bold';-inkscape-font-specification:'Tw Cen MT Condensed Extra Bold, ';text-align:end;text-anchor:end"
         id="path4171" />
      <path
         d="m 325.93005,408.1767 -2.50366,0 q 0,-1.28174 0.10254,-2.00806 0.11108,-0.72632 0.44434,-1.28174 0.34179,-0.56396 1.03393,-0.89721 0.70069,-0.3418 1.65772,-0.3418 1.58081,0 2.42675,0.82886 0.84595,0.82885 0.84595,2.39257 0,0.80323 -0.3247,1.73462 -0.32471,0.92285 -0.97413,2.03369 l -1.40136,2.39258 2.29858,0 0,2.32422 -6.51123,0 3.72559,-6.36597 q 0.68359,-1.14501 0.68359,-2.08496 0,-0.46997 -0.20508,-0.76904 -0.20508,-0.29907 -0.51269,-0.29907 -0.48706,0 -0.64087,0.39307 -0.14527,0.38452 -0.14527,1.52954 l 0,0.4187 z"
         style="font-style:normal;font-variant:normal;font-weight:normal;font-stretch:normal;line-height:60.00000238%;font-family:'Tw Cen MT Condensed Extra Bold';-inkscape-font-specification:'Tw Cen MT Condensed Extra Bold, ';text-align:end;text-anchor:end"
         id="path4173" />
      <path
         d="m 335.20984,403.64789 q 1.85425,0 2.81128,1.52954 0.96557,1.52954 0.96557,4.50317 0,2.89673 -0.98266,4.43482 -0.97412,1.53808 -2.79419,1.53808 -1.72608,0 -2.75147,-1.43554 -1.01684,-1.44409 -1.01684,-4.65699 0,-2.81982 0.98266,-4.36645 0.98267,-1.54663 2.75147,-1.54663 l 0.0342,0 z m -1.28174,5.89599 q 0,3.65723 1.26465,3.65723 0.68359,0 0.98267,-0.80322 0.30761,-0.81177 0.30761,-2.57202 0,-1.9397 -0.30761,-2.81983 -0.29908,-0.88867 -0.99976,-0.88867 -1.24756,0 -1.24756,3.42651 z"
         style="font-style:normal;font-variant:normal;font-weight:normal;font-stretch:normal;line-height:60.00000238%;font-family:'Tw Cen MT Condensed Extra Bold';-inkscape-font-specification:'Tw Cen MT Condensed Extra Bold, ';text-align:end;text-anchor:end"
         id="path4175" />
      <path
         d="m 343.08826,408.1767 -2.50367,0 q 0,-1.28174 0.10254,-2.00806 0.11109,-0.72632 0.44434,-1.28174 0.3418,-0.56396 1.03394,-0.89721 0.70068,-0.3418 1.65771,-0.3418 1.58081,0 2.42676,0.82886 0.84595,0.82885 0.84595,2.39257 0,0.80323 -0.32471,1.73462 -0.32471,0.92285 -0.97412,2.03369 l -1.40137,2.39258 2.29858,0 0,2.32422 -6.51123,0 3.72559,-6.36597 q 0.68359,-1.14501 0.68359,-2.08496 0,-0.46997 -0.20508,-0.76904 -0.20507,-0.29907 -0.51269,-0.29907 -0.48706,0 -0.64087,0.39307 -0.14526,0.38452 -0.14526,1.52954 l 0,0.4187 z"
         style="font-style:normal;font-variant:normal;font-weight:normal;font-stretch:normal;line-height:60.00000238%;font-family:'Tw Cen MT Condensed Extra Bold';-inkscape-font-specification:'Tw Cen MT Condensed Extra Bold, ';text-align:end;text-anchor:end"
         id="path4177" />
      <path
         d="m 351.88953,407.42474 -2.49512,0 q 0.0171,-0.98266 0.1709,-1.52954 0.16235,-0.54687 0.54687,-1.06811 0.39307,-0.52124 1.02539,-0.8374 0.63233,-0.32471 1.36719,-0.32471 1.31592,0 2.17041,0.94848 0.85449,0.93995 0.85449,2.39258 0,1.6919 -1.30737,2.65747 1.53809,0.79468 1.53809,2.83692 0,0.81177 -0.38453,1.62353 -0.37597,0.80323 -1.10229,1.17066 -0.72632,0.35888 -1.70044,0.35888 -1.46118,0 -2.39258,-0.85449 -0.93139,-0.86304 -0.99975,-2.36694 l 2.45239,0 q 0.0171,1.05102 0.8374,1.05102 0.80322,0 0.80322,-1.43554 0,-0.66651 -0.23925,-0.92285 -0.23072,-0.2649 -0.82886,-0.2649 l -0.78613,0 0,-2.36694 0.85449,0 q 0.54687,0 0.77759,-0.28198 0.23925,-0.29053 0.23925,-0.93994 0,-1.40137 -0.78613,-1.40137 -0.36743,0 -0.4956,0.29053 -0.11963,0.29052 -0.11963,1.02539 l 0,0.23925 z"
         style="font-style:normal;font-variant:normal;font-weight:normal;font-stretch:normal;line-height:60.00000238%;font-family:'Tw Cen MT Condensed Extra Bold';-inkscape-font-specification:'Tw Cen MT Condensed Extra Bold, ';text-align:end;text-anchor:end"
         id="path4179" />
      <path
         d="m 279.79602,413.81464 2.47803,0 0,5.19531 0.0427,0 q 0.91431,-1.27319 2.1106,-1.27319 0.85449,0 1.32446,0.56396 0.47852,0.55542 0.47852,1.57227 l 0,5.98144 -2.48658,0 0,-4.7937 q 0,-0.46142 -0.18798,-0.71777 -0.17945,-0.2649 -0.50415,-0.2649 -0.77759,0 -0.77759,1.05103 l 0,4.72534 -2.47803,0 0,-12.03979 z"
         style="font-style:normal;font-variant:normal;font-weight:normal;font-stretch:normal;line-height:60.00000238%;font-family:'Tw Cen MT Condensed Extra Bold';-inkscape-font-specification:'Tw Cen MT Condensed Extra Bold, ';text-align:end;text-anchor:end"
         id="path4181" />
      <path
         d="m 291.98108,425.85443 0,-1.03393 -0.0342,0 q -0.45288,0.6665 -0.88013,0.98266 -0.4187,0.31616 -0.99121,0.31616 -1.11938,0 -1.78589,-1.14501 -0.6665,-1.14502 -0.6665,-3.11036 0,-1.88842 0.67505,-3.00781 0.67505,-1.11938 1.77734,-1.11938 0.5896,0 0.99976,0.29907 0.41015,0.29053 0.85449,0.93994 l 0.0342,0 0,-0.98267 2.48657,0 0,7.86133 -2.46948,0 z m 0,-3.97339 q 0,-1.95678 -0.95703,-1.95678 -0.96558,0 -0.96558,1.95678 0,2.03369 0.99976,2.03369 0.92285,0 0.92285,-2.03369 z"
         style="font-style:normal;font-variant:normal;font-weight:normal;font-stretch:normal;line-height:60.00000238%;font-family:'Tw Cen MT Condensed Extra Bold';-inkscape-font-specification:'Tw Cen MT Condensed Extra Bold, ';text-align:end;text-anchor:end"
         id="path4183" />
      <path
         d="m 296.40735,413.81464 2.48657,0 0,12.03979 -2.48657,0 0,-12.03979 z"
         style="font-style:normal;font-variant:normal;font-weight:normal;font-stretch:normal;line-height:60.00000238%;font-family:'Tw Cen MT Condensed Extra Bold';-inkscape-font-specification:'Tw Cen MT Condensed Extra Bold, ';text-align:end;text-anchor:end"
         id="path4185" />
      <path
         d="m 305.11462,423.45331 0,2.05078 q -0.88867,0.59814 -1.78588,0.59814 -1.32447,0 -2.12769,-1.14501 -0.79468,-1.15357 -0.79468,-3.09327 0,-1.83715 0.82031,-2.99072 0.82032,-1.15356 2.11915,-1.15356 0.90576,0 1.78588,0.64087 l 0,2.03369 q -0.50415,-0.2649 -0.90576,-0.2649 -0.59814,0 -0.96557,0.48706 -0.36744,0.47852 -0.36744,1.28174 0,0.84595 0.35889,1.33301 0.35889,0.48706 0.97412,0.48706 0.37598,0 0.88867,-0.26489 z"
         style="font-style:normal;font-variant:normal;font-weight:normal;font-stretch:normal;line-height:60.00000238%;font-family:'Tw Cen MT Condensed Extra Bold';-inkscape-font-specification:'Tw Cen MT Condensed Extra Bold, ';text-align:end;text-anchor:end"
         id="path4187" />
      <path
         d="m 305.81531,417.9931 2.45239,0 0.62378,2.04224 q 0.32471,1.07666 0.56396,2.1106 l 0.0427,0 q 0.19653,-0.98267 0.32471,-1.40992 l 0.82885,-2.74292 2.48658,0 -3.34961,11.09986 -2.47803,0 1.0083,-3.34107 -2.50366,-7.75879 z"
         style="font-style:normal;font-variant:normal;font-weight:normal;font-stretch:normal;line-height:60.00000238%;font-family:'Tw Cen MT Condensed Extra Bold';-inkscape-font-specification:'Tw Cen MT Condensed Extra Bold, ';text-align:end;text-anchor:end"
         id="path4189" />
      <path
         d="m 317.7782,414.44696 2.70019,0 1.40992,5.04151 q 0.40161,1.49536 0.54687,2.55493 l 0.0342,0 q 0.12817,-0.9314 0.28198,-1.52954 l 1.57227,-6.0669 2.76855,0 -3.42651,11.40747 -2.40112,0 -3.48633,-11.40747 z"
         style="font-style:normal;font-variant:normal;font-weight:normal;font-stretch:normal;line-height:60.00000238%;font-family:'Tw Cen MT Condensed Extra Bold';-inkscape-font-specification:'Tw Cen MT Condensed Extra Bold, ';text-align:end;text-anchor:end"
         id="path4191" />
      <path
         d="m 328.22864,415.63471 q 0,-0.54688 0.38452,-0.9314 0.38452,-0.38452 0.92285,-0.38452 0.54688,0 0.9314,0.38452 0.38452,0.38452 0.38452,0.9314 0,0.53833 -0.38452,0.93139 -0.38452,0.38452 -0.9314,0.38452 -0.52978,0 -0.92285,-0.38452 -0.38452,-0.39306 -0.38452,-0.93139 z m 0.0684,2.35839 2.48657,0 0,7.86133 -2.48657,0 0,-7.86133 z"
         style="font-style:normal;font-variant:normal;font-weight:normal;font-stretch:normal;line-height:60.00000238%;font-family:'Tw Cen MT Condensed Extra Bold';-inkscape-font-specification:'Tw Cen MT Condensed Extra Bold, ';text-align:end;text-anchor:end"
         id="path4193" />
      <path
         d="m 335.6969,417.71967 q 1.70044,0 2.58911,1.13647 0.88867,1.12793 0.88867,3.14453 0,1.97388 -0.92285,3.05908 -0.92285,1.07666 -2.55493,1.07666 -1.56372,0 -2.48657,-1.10229 -0.91431,-1.1023 -0.91431,-3.03345 0,-2.0166 0.87158,-3.14453 0.88013,-1.13647 2.5293,-1.13647 z m 0.0171,6.19506 q 0.48706,0 0.72632,-0.45288 0.2478,-0.45288 0.2478,-1.54663 0,-1.0852 -0.23926,-1.52099 -0.23926,-0.43579 -0.71777,-0.43579 -0.46997,0 -0.71777,0.42724 -0.24781,0.4187 -0.24781,1.54663 0,1.98242 0.94849,1.98242 z"
         style="font-style:normal;font-variant:normal;font-weight:normal;font-stretch:normal;line-height:60.00000238%;font-family:'Tw Cen MT Condensed Extra Bold';-inkscape-font-specification:'Tw Cen MT Condensed Extra Bold, ';text-align:end;text-anchor:end"
         id="path4195" />
      <path
         d="m 340.70422,413.81464 2.48658,0 0,12.03979 -2.48658,0 0,-12.03979 z"
         style="font-style:normal;font-variant:normal;font-weight:normal;font-stretch:normal;line-height:60.00000238%;font-family:'Tw Cen MT Condensed Extra Bold';-inkscape-font-specification:'Tw Cen MT Condensed Extra Bold, ';text-align:end;text-anchor:end"
         id="path4197" />
      <path
         d="m 348.83899,423.45331 2.09351,0 q -0.59815,2.64892 -2.99073,2.64892 -1.49536,0 -2.36694,-1.13647 -0.87158,-1.13647 -0.87158,-3.13599 0,-1.86279 0.87158,-2.98217 0.87158,-1.12793 2.31567,-1.12793 0.87158,0 1.67481,0.54687 0.80322,0.53833 1.17065,1.43555 0.36743,0.89722 0.41016,2.82837 l -4.14429,0 q 0.0513,1.75171 0.97412,1.75171 0.31616,0 0.56397,-0.23072 0.2478,-0.23071 0.29907,-0.59814 z m -1.80298,-2.27295 1.80298,0 q -0.0256,-0.82886 -0.23071,-1.22192 -0.20508,-0.40162 -0.64942,-0.40162 -0.4956,0 -0.70923,0.38453 -0.21362,0.38452 -0.21362,1.23901 z"
         style="font-style:normal;font-variant:normal;font-weight:normal;font-stretch:normal;line-height:60.00000238%;font-family:'Tw Cen MT Condensed Extra Bold';-inkscape-font-specification:'Tw Cen MT Condensed Extra Bold, ';text-align:end;text-anchor:end"
         id="path4199" />
      <path
         d="m 352.90637,415.8996 2.48657,0 0,2.0935 0.96558,0 0,2.06787 -0.98267,0 0,5.79346 -2.46948,0 0,-5.81054 -0.93994,0 0,-2.05079 0.93994,0 0,-2.0935 z"
         style="font-style:normal;font-variant:normal;font-weight:normal;font-stretch:normal;line-height:60.00000238%;font-family:'Tw Cen MT Condensed Extra Bold';-inkscape-font-specification:'Tw Cen MT Condensed Extra Bold, ';text-align:end;text-anchor:end"
         id="path4201" />
      <path
         d="m 276.13879,436.14081 0,-2.65747 q 1.23047,0.71777 2.06788,0.71777 0.48706,0 0.76904,-0.26489 0.28198,-0.27344 0.28198,-0.71777 0,-0.3418 -0.23071,-0.64087 -0.22217,-0.29908 -0.77759,-0.72632 -1.34155,-1.02539 -1.94824,-1.90552 -0.59815,-0.88867 -0.59815,-1.97388 0,-1.47827 0.9314,-2.40966 0.9314,-0.9314 2.40967,-0.9314 1.09375,0 2.17041,0.46997 l 0,2.55493 q -1.15357,-0.63232 -1.87134,-0.63232 -0.47852,0 -0.7605,0.23926 -0.27344,0.23071 -0.27344,0.64086 0,0.71778 1.29029,1.61499 0.76904,0.52979 1.55517,1.49537 0.79468,0.95703 0.79468,2.22168 0,1.47827 -1.03393,2.45239 -1.03394,0.96557 -2.6233,0.96557 -1.0852,0 -2.15332,-0.51269 z"
         style="font-style:normal;font-variant:normal;font-weight:normal;font-stretch:normal;line-height:60.00000238%;font-family:'Tw Cen MT Condensed Extra Bold';-inkscape-font-specification:'Tw Cen MT Condensed Extra Bold, ';text-align:end;text-anchor:end"
         id="path4203" />
      <path
         d="m 287.43518,436.35443 0,-1.03393 -0.0342,0 q -0.45288,0.6665 -0.88013,0.98266 -0.4187,0.31616 -0.99121,0.31616 -1.11938,0 -1.78589,-1.14501 -0.6665,-1.14502 -0.6665,-3.11036 0,-1.88842 0.67505,-3.00781 0.67505,-1.11938 1.77734,-1.11938 0.5896,0 0.99976,0.29907 0.41016,0.29053 0.85449,0.93994 l 0.0342,0 0,-0.98267 2.48657,0 0,7.86133 -2.46948,0 z m 0,-3.97339 q 0,-1.95678 -0.95703,-1.95678 -0.96558,0 -0.96558,1.95678 0,2.0337 0.99976,2.0337 0.92285,0 0.92285,-2.0337 z"
         style="font-style:normal;font-variant:normal;font-weight:normal;font-stretch:normal;line-height:60.00000238%;font-family:'Tw Cen MT Condensed Extra Bold';-inkscape-font-specification:'Tw Cen MT Condensed Extra Bold, ';text-align:end;text-anchor:end"
         id="path4205" />
      <path
         d="m 295.74084,436.38861 0,-1.11938 q -0.72631,1.06811 -1.72607,1.06811 -1.26465,0 -1.96533,-1.05102 -0.70069,-1.05957 -0.70069,-2.99073 0,-1.88842 0.6836,-2.96508 0.68359,-1.07666 1.87134,-1.07666 1.05957,0 1.78589,1.06811 l 0.0342,0 0,-0.82886 2.48658,0 0,7.28028 q 0,0.99975 -0.35889,1.89697 -0.35034,0.89722 -1.24756,1.40991 -0.89721,0.5127 -1.96533,0.5127 -1.06812,0 -2.00806,-0.57251 -0.93994,-0.57251 -1.22192,-1.91406 l 2.22168,0 q 0.38452,0.59814 0.95703,0.59814 0.48706,0 0.82031,-0.38452 0.33325,-0.37598 0.33325,-0.9314 z m 0,-4.1272 q 0,-1.90551 -0.95703,-1.90551 -0.46997,0 -0.7434,0.46142 -0.27344,0.46143 -0.27344,1.28174 0,2.15332 0.99975,2.15332 0.97412,0 0.97412,-1.99097 z"
         style="font-style:normal;font-variant:normal;font-weight:normal;font-stretch:normal;line-height:60.00000238%;font-family:'Tw Cen MT Condensed Extra Bold';-inkscape-font-specification:'Tw Cen MT Condensed Extra Bold, ';text-align:end;text-anchor:end"
         id="path4207" />
      <path
         d="m 304.01233,436.35443 0,-1.03393 -0.0342,0 q -0.45288,0.6665 -0.88013,0.98266 -0.4187,0.31616 -0.99121,0.31616 -1.11938,0 -1.78589,-1.14501 -0.6665,-1.14502 -0.6665,-3.11036 0,-1.88842 0.67505,-3.00781 0.67505,-1.11938 1.77734,-1.11938 0.5896,0 0.99976,0.29907 0.41015,0.29053 0.85449,0.93994 l 0.0342,0 0,-0.98267 2.48657,0 0,7.86133 -2.46948,0 z m 0,-3.97339 q 0,-1.95678 -0.95703,-1.95678 -0.96558,0 -0.96558,1.95678 0,2.0337 0.99976,2.0337 0.92285,0 0.92285,-2.0337 z"
         style="font-style:normal;font-variant:normal;font-weight:normal;font-stretch:normal;line-height:60.00000238%;font-family:'Tw Cen MT Condensed Extra Bold';-inkscape-font-specification:'Tw Cen MT Condensed Extra Bold, ';text-align:end;text-anchor:end"
         id="path4209" />
      <path
         d="m 313.77917,424.94696 3.27271,0 q 0.70068,3.69141 1.10229,6.34888 l 0.28199,-1.7688 q 0.1709,-1.03394 0.36743,-2.0166 l 0.50415,-2.56348 3.34106,0 1.29883,11.40747 -2.56347,0 -0.69214,-7.84424 -1.5979,7.84424 -1.75171,0 -1.67481,-7.86133 -0.6665,7.86133 -2.45239,0 1.23046,-11.40747 z"
         style="font-style:normal;font-variant:normal;font-weight:normal;font-stretch:normal;line-height:60.00000238%;font-family:'Tw Cen MT Condensed Extra Bold';-inkscape-font-specification:'Tw Cen MT Condensed Extra Bold, ';text-align:end;text-anchor:end"
         id="path4211" />
      <path
         d="m 325.67371,428.4931 2.48657,0 0,5.0586 q 0,0.39306 0.17944,0.65796 0.18799,0.25634 0.50415,0.25634 0.71778,0 0.71778,-1.05102 l 0,-4.92188 2.48657,0 0,4.55445 q 0,1.73462 -0.81177,2.65747 -0.81177,0.9143 -2.34131,0.9143 -1.70898,0 -2.46948,-0.93994 -0.75195,-0.93994 -0.75195,-2.34985 l 0,-4.83643 z"
         style="font-style:normal;font-variant:normal;font-weight:normal;font-stretch:normal;line-height:60.00000238%;font-family:'Tw Cen MT Condensed Extra Bold';-inkscape-font-specification:'Tw Cen MT Condensed Extra Bold, ';text-align:end;text-anchor:end"
         id="path4213" />
      <path
         d="m 334.19299,433.81659 q 1.2732,0.75195 1.83716,0.75195 0.30762,0 0.5127,-0.1538 0.20507,-0.16236 0.20507,-0.38453 0,-0.23925 -0.17089,-0.35034 -0.1709,-0.11108 -1.28174,-0.59814 -0.88867,-0.39307 -1.28174,-0.92285 -0.39307,-0.53833 -0.39307,-1.33301 0,-1.13648 0.77759,-1.87134 0.78613,-0.73486 1.99951,-0.73486 1.1792,0 2.88819,0.93994 l -0.95703,1.7688 q -1.11084,-0.6836 -1.82007,-0.6836 -0.61524,0 -0.61524,0.49561 0,0.23926 0.22217,0.4187 0.23071,0.1709 0.82886,0.38452 1.11938,0.39307 1.62353,0.93994 0.5127,0.54688 0.5127,1.38428 0,1.19629 -0.80322,1.96533 -0.80323,0.76905 -2.05079,0.76905 -1.35009,0 -2.88818,-0.94849 l 0.85449,-1.83716 z"
         style="font-style:normal;font-variant:normal;font-weight:normal;font-stretch:normal;line-height:60.00000238%;font-family:'Tw Cen MT Condensed Extra Bold';-inkscape-font-specification:'Tw Cen MT Condensed Extra Bold, ';text-align:end;text-anchor:end"
         id="path4215" />
      <path
         d="m 340.60168,426.13471 q 0,-0.54688 0.38453,-0.9314 0.38452,-0.38452 0.92285,-0.38452 0.54687,0 0.93139,0.38452 0.38453,0.38452 0.38453,0.9314 0,0.53833 -0.38453,0.93139 -0.38452,0.38452 -0.93139,0.38452 -0.52979,0 -0.92285,-0.38452 -0.38453,-0.39306 -0.38453,-0.93139 z m 0.0684,2.35839 2.48658,0 0,7.86133 -2.48658,0 0,-7.86133 z"
         style="font-style:normal;font-variant:normal;font-weight:normal;font-stretch:normal;line-height:60.00000238%;font-family:'Tw Cen MT Condensed Extra Bold';-inkscape-font-specification:'Tw Cen MT Condensed Extra Bold, ';text-align:end;text-anchor:end"
         id="path4217" />
      <path
         d="m 344.33582,428.4931 2.83691,0 q 0.95703,2.04224 1.05102,2.52076 l 0.0342,0 q 0.13672,-0.65796 1.06812,-2.52076 l 2.854,0 -2.52075,3.9563 2.53784,3.90503 -2.78564,0 q -0.82886,-1.7688 -1.15357,-2.62329 l -0.0342,0 q -0.0342,0.29907 -0.4956,1.29028 l -0.62378,1.33301 -2.74292,0 2.47803,-3.87085 -2.50366,-3.99048 z"
         style="font-style:normal;font-variant:normal;font-weight:normal;font-stretch:normal;line-height:60.00000238%;font-family:'Tw Cen MT Condensed Extra Bold';-inkscape-font-specification:'Tw Cen MT Condensed Extra Bold, ';text-align:end;text-anchor:end"
         id="path4219" />
    </g>
  </g>
</svg>
